<?xml version="1.0" encoding="UTF-8"?> <svg xmlns="http://www.w3.org/2000/svg" xmlns:xlink="http://www.w3.org/1999/xlink" version="1.1" id="Layer_1" x="0px" y="0px" viewBox="0 0 400 400" style="enable-background:new 0 0 400 400;" xml:space="preserve"> <style type="text/css"> .st0{fill:#E67674;} </style> <g> <path class="st0" d="M200,367.9c-23.2,0-45.3-4.7-65.3-13.2c-30.1-12.7-55.8-34-73.9-60.9c-18.1-26.8-28.7-59-28.7-93.9 c0-23.2,4.7-45.3,13.2-65.3c12.7-30.1,34-55.8,60.9-73.9C133,42.6,165.2,32,200.1,32c23.2,0,45.3,4.7,65.3,13.2 c30.1,12.7,55.8,34,73.9,60.9c18.1,26.8,28.7,59,28.7,93.9c0,23.2-4.7,45.3-13.2,65.3c-12.7,30.1-34,55.8-60.9,73.9 C267,357.3,234.8,367.9,200,367.9 M200,2.1c-27.3,0-53.4,5.5-77.1,15.6c-35.5,15-65.7,40.1-87.1,71.7C14.6,120.9,2.1,159.1,2.1,200 c0,27.3,5.5,53.3,15.6,77c15,35.5,40.1,65.7,71.7,87.1c31.6,21.3,69.7,33.8,110.6,33.8c27.3,0,53.3-5.5,77-15.6 c35.5-15,65.7-40.1,87.1-71.7c21.3-31.6,33.8-69.7,33.8-110.7c0-27.3-5.5-53.3-15.6-77c-15-35.5-40.1-65.7-71.7-87.1 C279.1,14.6,240.9,2.1,200,2.1"></path> <path class="st0" d="M274.4,102.4c-1.4,0-2.7,0.5-3.7,1.5L200,174.7L129.3,104c-1-1-2.3-1.5-3.7-1.5c-1.4,0-2.7,0.5-3.7,1.5 l-20.4,20.4c-1,1-1.5,2.3-1.5,3.7c0,1.4,0.5,2.7,1.5,3.7l70.7,70.7l-70.7,70.8c-2,2-2,5.3,0,7.3l20.4,20.4c1,1,2.3,1.5,3.7,1.5 c1.4,0,2.7-0.5,3.7-1.5l70.7-70.7l70.7,70.7c1,1,2.3,1.5,3.7,1.5c1.4,0,2.7-0.5,3.7-1.5l20.5-20.4c1-1,1.5-2.3,1.5-3.7 c0-1.4-0.5-2.7-1.5-3.7l-70.7-70.8l70.7-70.7c1-1,1.5-2.3,1.5-3.7c0-1.4-0.5-2.7-1.5-3.7L278,103.9 C277,102.9,275.7,102.4,274.4,102.4"></path> </g> <text transform="matrix(1 0 0 1 613 188.0781)" style="font-family:'MyriadPro-Semibold'; font-size:118.434px;">e99999</text> <text transform="matrix(1 0 0 1 613 330.1781)" style="font-family:'MyriadPro-Semibold'; font-size:118.434px;">e15a58</text> <text transform="matrix(1 0 0 1 613 472.2781)" style="font-family:'MyriadPro-Semibold'; font-size:118.434px;">e67674</text> </svg> 