<?xml version="1.0" encoding="UTF-8"?> <svg xmlns="http://www.w3.org/2000/svg" xmlns:xlink="http://www.w3.org/1999/xlink" version="1.1" id="Layer_1" x="0px" y="0px" viewBox="0 0 400 400" style="enable-background:new 0 0 400 400;" xml:space="preserve"> <style type="text/css"> .st0{fill:#F5C536;} </style> <text transform="matrix(1 0 0 1 746.7305 199.7773)" style="font-family:'MyriadPro-Semibold'; font-size:81.6483px;">f2b500</text> <text transform="matrix(1 0 0 1 746.7305 311.1405)" style="font-family:'MyriadPro-Semibold'; font-size:81.6483px;">f5c536</text> <path class="st0" d="M200,41.4c2.1,0,3.6,0.9,4.6,2.7l79.9,147l76.7,141c4.5,8.2-1.5,18.3-10.9,18.3l-150.3,0l-150.3,0 c-9.4,0-15.4-10-10.9-18.3l76.7-141l79.9-147C196.4,42.3,197.9,41.4,200,41.4 M200,13.4c-11.4,0-22.9,5.8-29.2,17.3l-79.9,147 l-87.5,161c-9.6,17.6,2.4,39.7,21.5,39.7l175.1,0l175.1,0c19.2,0,31.1-22.1,21.5-39.7l-87.5-161l-79.9-147 C222.9,19.2,211.4,13.4,200,13.4L200,13.4z"></path> <g> <path class="st0" d="M210.8,263.6h-26c-1.9,0-3.4-1.5-3.5-3.4l-2.6-113.3c0-1.9,1.5-3.5,3.5-3.5h31.3c1.9,0,3.5,1.6,3.5,3.5 l-2.6,113.3C214.2,262.1,212.6,263.6,210.8,263.6z"></path> <circle class="st0" cx="199" cy="299.5" r="22.7"></circle> </g> </svg> 