<?xml version="1.0" encoding="UTF-8"?> <svg xmlns="http://www.w3.org/2000/svg" xmlns:xlink="http://www.w3.org/1999/xlink" height="256px" id="Layer_1" version="1.1" viewBox="0 0 256 256" width="256px" xml:space="preserve"><g><g><path d="M143.418,187.075c42.699-5.07,88.582-34.957,88.582-82.092c0-22.669-11.461-43.276-29.99-58.27 c-18.887-15.28-45.049-24.731-74.01-24.731c-28.959,0-55.121,9.451-74.008,24.731C35.463,61.707,24,82.314,24,104.983 c0,43.131,39.103,72.454,78.196,80.435c2.834,0.579,4.804,3.075,4.804,5.859v33.492l32.714-35.772 C140.72,187.896,142.045,187.239,143.418,187.075L143.418,187.075z M95,240.181v-44.116c-43-10.406-83.001-43.93-83.001-91.081 c0-26.485,13.165-50.379,34.446-67.598C67.371,20.455,96.211,9.982,128,9.982c31.791,0,60.631,10.473,81.557,27.403 C230.838,54.604,244,78.498,244,104.983c0,52.572-48.855,87.223-96.975,93.717L105.8,243.782 C101.958,247.983,95,245.97,95,240.181L95,240.181z" fill="#3B4652"></path><path clip-rule="evenodd" d="M119.928,54.565c6.221-6.221,16.309-6.221,22.529,0 c6.221,6.223,6.221,16.309,0,22.531c-6.221,6.222-16.309,6.222-22.529,0C113.705,70.874,113.705,60.788,119.928,54.565 L119.928,54.565z M110.643,93h21.703c3.182,0,5.459,2.591,5.068,5.769l-5.029,40.929c-0.977,7.957,9.975,8.802,12.705,2.228 c0.52-1.249,1.725-1.926,3.027-1.926h1.348c0.881,0,1.594,0.198,2.078,0.87c0.488,0.669,0.609,1.4,0.357,2.267 c-2.775,9.557-13.203,16.803-23.219,16.803c-11.092,0-19.77-8.797-18.537-20.228l3.146-33.924 c0.145-1.561-0.988-2.788-2.543-2.788h-4.221c-1.586,0-2.729-1.324-2.533-2.914l0.16-1.305C104.545,95.598,107.459,93,110.643,93 L110.643,93z" fill="#2B79C2" fill-rule="evenodd"></path></g></g></svg> 