<?xml version="1.0" encoding="UTF-8"?> <svg xmlns="http://www.w3.org/2000/svg" xmlns:xlink="http://www.w3.org/1999/xlink" version="1.1" id="Layer_1" x="0px" y="0px" viewBox="0 0 400 400" style="enable-background:new 0 0 400 400;" xml:space="preserve"> <style type="text/css"> .st0{fill:#7BC66E;} </style> <g> <g> <path class="st0" d="M200,367.9c-23.2,0-45.3-4.7-65.3-13.2c-30.1-12.7-55.8-34-73.9-60.9c-18.1-26.8-28.7-59-28.7-93.9 c0-23.2,4.7-45.3,13.2-65.3c12.7-30.1,34-55.8,60.9-73.9C133,42.6,165.2,32,200.1,32l0,0c23.2,0,45.3,4.7,65.3,13.2 c30.1,12.7,55.8,34,73.9,60.9c18.1,26.8,28.7,59,28.7,93.9c0,23.2-4.7,45.3-13.2,65.3c-12.7,30.1-34,55.8-60.9,73.9 C267,357.3,234.8,367.9,200,367.9 M200,2.1L200,2.1L200,2.1L200,2.1c-27.3,0-53.4,5.5-77.1,15.6c-35.5,15-65.7,40.1-87.1,71.7 C14.6,120.9,2.1,159.1,2.1,200c0,27.3,5.5,53.3,15.6,77c15,35.5,40.1,65.7,71.7,87.1c31.6,21.3,69.7,33.8,110.6,33.8l0,0l0,0 c27.3,0,53.3-5.5,77-15.6c35.5-15,65.7-40.1,87.1-71.7c21.3-31.6,33.8-69.7,33.8-110.7c0-27.3-5.5-53.3-15.6-77 c-15-35.5-40.1-65.7-71.7-87.1C279.1,14.6,240.9,2.1,200,2.1"></path> </g> </g> <path class="st0" d="M280.3,95.4c-1.9,0.2-3.7,1.1-5.1,2.6L168,228.6l-41.8-35.4c-1.6-1.3-3.5-1.9-5.4-1.7s-3.7,1-5,2.6l-22.1,26.2 c-2.6,3.1-2.2,7.8,0.9,10.4l73.6,62.1c1.6,1.3,3.5,1.9,5.4,1.7c1.9-0.2,3.7-1,5-2.6l4.5-5.3l129.7-157.1c2.6-3.1,2.2-7.7-0.9-10.3 l-26.2-22.1C284.1,95.8,282.2,95.3,280.3,95.4"></path> <text transform="matrix(1 0 0 1 746.7305 199.7773)" style="font-family:'MyriadPro-Semibold'; font-size:81.6483px;">a9daad</text> <text transform="matrix(1 0 0 1 746.7305 297.7773)" style="font-family:'MyriadPro-Semibold'; font-size:81.6483px;">5ab84a</text> <text transform="matrix(1 0 0 1 746.7305 395.7773)" style="font-family:'MyriadPro-Semibold'; font-size:81.6483px;">7bc66e</text> </svg> 